<svg id="visual" viewBox="0 0 900 600" width="900" height="600" xmlns="http://www.w3.org/2000/svg" xmlns:xlink="http://www.w3.org/1999/xlink" version="1.1"><rect x="0" y="0" width="900" height="600" fill="#6d28d9"></rect><defs><linearGradient id="grad1_0" x1="33.3%" y1="0%" x2="100%" y2="100%"><stop offset="20%" stop-color="#6d28d9" stop-opacity="1"></stop><stop offset="80%" stop-color="#6d28d9" stop-opacity="1"></stop></linearGradient></defs><defs><linearGradient id="grad2_0" x1="0%" y1="0%" x2="66.7%" y2="100%"><stop offset="20%" stop-color="#6d28d9" stop-opacity="1"></stop><stop offset="80%" stop-color="#6d28d9" stop-opacity="1"></stop></linearGradient></defs><g transform="translate(900, 0)"><path d="M0 405.6C-50.9 386 -101.7 366.4 -140.4 339.1C-179.2 311.7 -205.8 276.5 -247.5 247.5C-289.2 218.4 -345.9 195.5 -374.7 155.2C-403.6 115 -404.6 57.5 -405.6 0L0 0Z" fill="#7c3aed"></path></g><g transform="translate(0, 600)"><path d="M0 -405.6C43.3 -368 86.5 -330.4 126.7 -305.8C166.8 -281.2 203.8 -269.6 248.9 -248.9C294 -228.2 347.3 -198.2 374.7 -155.2C402.2 -112.2 403.9 -56.1 405.6 0L0 0Z" fill="#7c3aed"></path></g></svg>